<svg width="40" height="40" viewBox="0 0 40 40" fill="none" xmlns="http://www.w3.org/2000/svg">
<path d="M25.285 40.0008H14.2516C4.26627 40.0008 0 35.7345 0 25.7492V14.7158C0 4.73049 4.26627 0.464218 14.2516 0.464218H17.9294C18.6833 0.464218 19.3086 1.08945 19.3086 1.8434C19.3086 2.59735 18.6833 3.22258 17.9294 3.22258H14.2516C5.77418 3.22258 2.75837 6.2384 2.75837 14.7158V25.7492C2.75837 34.2266 5.77418 37.2424 14.2516 37.2424H25.285C33.7624 37.2424 36.7782 34.2266 36.7782 25.7492V22.0714C36.7782 21.3175 37.4034 20.6922 38.1574 20.6922C38.9114 20.6922 39.5366 21.3175 39.5366 22.0714V25.7492C39.5366 35.7345 35.2703 40.0008 25.285 40.0008Z" fill="black"/>
<path d="M13.3309 30.6961C12.2092 30.6961 11.1794 30.2915 10.4255 29.556C9.52439 28.6549 9.13821 27.3493 9.34049 25.9701L10.1312 20.435C10.2783 19.3684 10.9771 17.9892 11.7311 17.2353L26.2216 2.74458C29.881 -0.914859 33.5956 -0.914859 37.2551 2.74458C39.2595 4.74899 40.1605 6.79018 39.9767 8.83137C39.8112 10.4864 38.9285 12.1046 37.2551 13.7597L22.7645 28.2503C22.0105 29.0043 20.6313 29.7031 19.5647 29.8502L14.0297 30.6409C13.7907 30.6961 13.5516 30.6961 13.3309 30.6961ZM28.1708 4.69382L13.6803 19.1845C13.3309 19.5339 12.9264 20.343 12.8528 20.8211L12.0621 26.3563C11.9885 26.8895 12.0989 27.3309 12.3747 27.6067C12.6505 27.8826 13.0919 27.9929 13.6252 27.9193L19.1602 27.1286C19.6383 27.0551 20.4658 26.6505 20.7968 26.3011L35.2874 11.8104C36.4827 10.6151 37.108 9.54855 37.1999 8.55553C37.3102 7.36024 36.685 6.09139 35.2874 4.67543C32.3452 1.73317 30.3224 2.56068 28.1708 4.69382Z" fill="black"/>
<path d="M34.203 16.2417C34.0743 16.2417 33.9455 16.2233 33.8352 16.1865C28.9989 14.8257 25.1556 10.9824 23.7948 6.14605C23.5925 5.41048 24.0154 4.65653 24.751 4.43586C25.4866 4.23358 26.2405 4.65653 26.4428 5.3921C27.5461 9.30898 30.6539 12.4167 34.5708 13.5201C35.3063 13.7224 35.7293 14.4947 35.527 15.2303C35.3615 15.8555 34.8098 16.2417 34.203 16.2417Z" fill="black"/>
</svg>
