<svg width="37" height="37" viewBox="0 0 37 37" fill="none" xmlns="http://www.w3.org/2000/svg">
<path d="M26.9046 23.8608C29.1212 20.8362 30.114 17.0861 29.6843 13.3608C29.2547 9.63558 27.4343 6.20992 24.5874 3.7692C21.7405 1.32848 18.077 0.0526938 14.3299 0.197078C10.5827 0.341463 7.02827 1.89537 4.37761 4.54792C1.72696 7.20047 0.175594 10.756 0.033891 14.5033C-0.107812 18.2506 1.1706 21.9131 3.61335 24.7583C6.05611 27.6035 9.48307 29.4214 13.2086 29.8483C16.9342 30.2753 20.6835 29.2798 23.7066 27.0611H23.7044C23.773 27.1527 23.8463 27.2396 23.9287 27.3243L32.742 36.1376C33.1712 36.5671 33.7535 36.8086 34.3607 36.8088C34.968 36.809 35.5504 36.568 35.98 36.1387C36.4095 35.7095 36.6509 35.1272 36.6512 34.52C36.6514 33.9127 36.4104 33.3303 35.9811 32.9007L27.1679 24.0875C27.086 24.0046 26.998 23.9304 26.9046 23.8608ZM27.4952 15.0613C27.4952 16.7147 27.1695 18.3519 26.5368 19.8794C25.9041 21.407 24.9767 22.7949 23.8076 23.9641C22.6384 25.1332 21.2505 26.0606 19.723 26.6933C18.1954 27.326 16.5582 27.6517 14.9048 27.6517C13.2514 27.6517 11.6142 27.326 10.0867 26.6933C8.55918 26.0606 7.17123 25.1332 6.0021 23.9641C4.83298 22.7949 3.90558 21.407 3.27285 19.8794C2.64013 18.3519 2.31447 16.7147 2.31447 15.0613C2.31447 11.7221 3.64095 8.51974 6.0021 6.15859C8.36325 3.79743 11.5657 2.47095 14.9048 2.47095C18.244 2.47095 21.4464 3.79743 23.8076 6.15859C26.1687 8.51974 27.4952 11.7221 27.4952 15.0613Z" fill="black"/>
</svg>
